# xmcd
#
# Track frame offsets:
#	150
#	16389
#	34595
#	50188
#	69017
#	87142
#	101489
#	120267
#	140589
#	163774
#	180308
#
# Disc length: 2566 seconds
# Revision: 0
# Processed by: cddbd v1.5.2PL0 Copyright (c) Steve Scherf et al.
# Submitted via: dBpowerAMP V12.0
#
DISCID=830a040b
DTITLE=Ray Benson - A Little Piece
DYEAR=2014
DGENRE=Country
TTITLE0=A Little Piece
TTITLE1=I Ain't Lookin' For No Trouble
TTITLE2=Give Me Some Peace
TTITLE3=It Ain't You
TTITLE4=In The Blink Of An Eye
TTITLE5=Killed By A .45
TTITLE6=JJ Cale
TTITLE7=Over And Over
TTITLE8=Lovin' Man
TTITLE9=Heartache And Pain
TTITLE10=Marie
EXTD=
EXTT0=
EXTT1=
EXTT2=
EXTT3=
EXTT4=
EXTT5=
EXTT6=
EXTT7=
EXTT8=
EXTT9=
EXTT10=
PLAYORDER=
